<svg width="13" height="11" viewBox="0 0 13 11" fill="none" xmlns="http://www.w3.org/2000/svg">
<path d="M3.61111 0H9.38889C10.4303 0 11.1396 0.00144438 11.6704 0.0722222C12.1803 0.141555 12.4164 0.262167 12.5768 0.423222C12.7378 0.583556 12.8584 0.820444 12.9271 1.32961C12.9986 1.86044 13 2.56967 13 3.61111V6.5C13 7.54217 12.9986 8.25067 12.9278 8.7815C12.8584 9.29139 12.7378 9.52756 12.5768 9.68789C12.4164 9.84894 12.1796 9.96956 11.6704 10.0382C11.1396 10.1097 10.4311 10.1111 9.38889 10.1111H3.61111C2.56967 10.1111 1.86044 10.1097 1.32961 10.0389C0.819722 9.96956 0.583556 9.84894 0.423222 9.68789C0.262167 9.52756 0.141556 9.29067 0.0729445 8.7815C0.0014445 8.25067 0 7.54217 0 6.5V3.61111C0 2.56967 0.00144438 1.86044 0.0722222 1.32961C0.141555 0.819722 0.262167 0.583556 0.423222 0.423222C0.583556 0.262167 0.820444 0.141555 1.32961 0.0729443C1.86044 0.00144432 2.56967 0 3.61111 0Z" stroke="white" stroke-width="2"/>
<path d="M0.72229 0.722229L4.76673 3.75556C5.60162 4.38173 6.01835 4.69445 6.50007 4.69445C6.98179 4.69445 7.39851 4.38173 8.2334 3.75556L12.2778 0.722229" stroke="white" stroke-width="2"/>
</svg>
