<svg width="19" height="19" viewBox="0 0 19 19" fill="none" xmlns="http://www.w3.org/2000/svg">
<path fill-rule="evenodd" clip-rule="evenodd" d="M15.7879 2.6988C14.0506 0.959392 11.7403 0.00102499 9.27925 0C4.20759 0 0.0789244 4.12764 0.0768744 9.20135C0.0768744 10.8229 0.500195 12.4055 1.30481 13.8015L0 18.5687L4.87793 17.2885C6.22272 18.0214 7.73561 18.4078 9.27515 18.4088H9.27925C14.3499 18.4088 18.4785 14.2812 18.4806 9.2075C18.4806 6.74957 17.5253 4.43821 15.7879 2.6988ZM9.27925 16.856H9.27617C7.90371 16.855 6.55789 16.487 5.38325 15.789L5.10446 15.6229L2.20988 16.3824L2.9817 13.5606L2.80028 13.2716C2.03461 12.0539 1.63076 10.6466 1.63076 9.20135C1.63281 4.98453 5.06346 1.55389 9.28232 1.55389C11.3251 1.55491 13.2449 2.35133 14.6891 3.79657C16.1323 5.24283 16.9277 7.16366 16.9267 9.2075C16.9247 13.4243 13.494 16.856 9.27925 16.856ZM13.4745 11.1273C13.2439 11.0115 12.1144 10.4559 11.9032 10.3791C11.6931 10.3022 11.5404 10.2643 11.3866 10.4939C11.2329 10.7235 10.7921 11.2411 10.6579 11.3948C10.5236 11.5486 10.3893 11.567 10.1597 11.4522C9.93011 11.3374 9.18905 11.0945 8.31063 10.3114C7.62696 9.70154 7.16571 8.9492 7.03144 8.71858C6.89717 8.48795 7.01709 8.36393 7.13291 8.24913C7.23644 8.14663 7.36251 7.98058 7.47731 7.84631C7.59211 7.71203 7.63003 7.61671 7.70691 7.46296C7.78378 7.30921 7.74586 7.17494 7.68743 7.06014C7.63003 6.94432 7.16981 5.81273 6.97814 5.3525C6.79262 4.90663 6.60299 4.96608 6.46154 4.95993C6.3283 4.95378 6.17455 4.95173 6.02182 4.95173C5.86807 4.95173 5.619 5.00913 5.40785 5.23873C5.19671 5.46935 4.60324 6.0249 4.60324 7.15649C4.60324 8.28808 5.42733 9.38175 5.54213 9.53549C5.65693 9.68924 7.16366 12.0108 9.46989 13.0071C10.0193 13.2439 10.4477 13.3854 10.7809 13.492C11.3313 13.6672 11.8325 13.6416 12.2292 13.5832C12.6709 13.5176 13.5893 13.0276 13.781 12.4905C13.9727 11.9534 13.9727 11.4932 13.9153 11.3969C13.8579 11.3005 13.7031 11.2421 13.4745 11.1273Z" fill="white"/>
</svg>
