<svg width="19" height="19" viewBox="0 0 19 19" fill="none" xmlns="http://www.w3.org/2000/svg">
<path d="M9.50212 4.62761C6.8063 4.62761 4.63185 6.80206 4.63185 9.49788C4.63185 12.1937 6.8063 14.3682 9.50212 14.3682C12.1979 14.3682 14.3724 12.1937 14.3724 9.49788C14.3724 6.80206 12.1979 4.62761 9.50212 4.62761ZM9.50212 12.6642C7.76001 12.6642 6.33581 11.2442 6.33581 9.49788C6.33581 7.75153 7.75577 6.33157 9.50212 6.33157C11.2485 6.33157 12.6684 7.75153 12.6684 9.49788C12.6684 11.2442 11.2442 12.6642 9.50212 12.6642ZM15.7076 4.42839C15.7076 5.05996 15.1989 5.56436 14.5716 5.56436C13.94 5.56436 13.4356 5.05572 13.4356 4.42839C13.4356 3.80106 13.9443 3.29241 14.5716 3.29241C15.1989 3.29241 15.7076 3.80106 15.7076 4.42839ZM18.9332 5.58132C18.8612 4.05962 18.5136 2.71171 17.3988 1.60117C16.2883 0.49063 14.9404 0.143056 13.4187 0.0667596C11.8504 -0.0222532 7.14964 -0.0222532 5.58132 0.0667596C4.06386 0.138818 2.71595 0.486391 1.60117 1.59693C0.486392 2.70747 0.143056 4.05538 0.0667596 5.57708C-0.0222532 7.1454 -0.0222532 11.8461 0.0667596 13.4144C0.138818 14.9361 0.486392 16.284 1.60117 17.3946C2.71595 18.5051 4.05962 18.8527 5.58132 18.929C7.14964 19.018 11.8504 19.018 13.4187 18.929C14.9404 18.8569 16.2883 18.5094 17.3988 17.3946C18.5094 16.284 18.8569 14.9361 18.9332 13.4144C19.0223 11.8461 19.0223 7.14964 18.9332 5.58132ZM16.9071 15.0972C16.5765 15.928 15.9365 16.568 15.1015 16.9029C13.851 17.3988 10.8839 17.2844 9.50212 17.2844C8.1203 17.2844 5.14897 17.3946 3.90279 16.9029C3.072 16.5723 2.43196 15.9322 2.0971 15.0972C1.60117 13.8468 1.71562 10.8797 1.71562 9.49788C1.71562 8.11606 1.60541 5.14473 2.0971 3.89855C2.42772 3.06776 3.06776 2.42772 3.90279 2.09286C5.15321 1.59693 8.1203 1.71138 9.50212 1.71138C10.8839 1.71138 13.8553 1.60117 15.1015 2.09286C15.9322 2.42348 16.5723 3.06352 16.9071 3.89855C17.4031 5.14897 17.2886 8.11606 17.2886 9.49788C17.2886 10.8797 17.4031 13.851 16.9071 15.0972Z" fill="white"/>
</svg>
